<svg width="40" height="40" viewBox="0 0 40 40" fill="none" xmlns="http://www.w3.org/2000/svg">
<path fill-rule="evenodd" clip-rule="evenodd" d="M16.9782 18.9363C17.8682 18.5448 18.6415 17.9066 19.2164 17.0892C19.7449 16.2211 20.0074 15.2022 19.9683 14.1709C20.0026 13.2305 19.8289 12.2945 19.4612 11.4373C19.1522 10.6946 18.6563 10.0558 18.0274 9.59028C17.3605 9.1063 16.6033 8.77881 15.8067 8.62982C14.8639 8.42094 13.9022 8.32184 12.939 8.33429H3C2.72386 8.33429 2.5 8.55815 2.5 8.83429V31.07C2.5 31.3461 2.72386 31.57 3 31.57H13.1663C14.1397 31.5707 15.1093 31.4404 16.0515 31.1821C16.9445 30.938 17.7906 30.5318 18.5519 29.9815C19.2894 29.4416 19.8899 28.7186 20.3005 27.8759C20.755 26.9335 20.9775 25.8854 20.9475 24.8283C20.9806 23.5183 20.6327 22.229 19.9508 21.1342C19.2174 20.0333 18.1297 19.2519 16.8908 18.9363H16.9782ZM7.58329 12.0833C7.3992 12.0833 7.24996 12.2325 7.24996 12.4166V17.5833C7.24996 17.7673 7.3992 17.9166 7.58329 17.9166H12.25C13.8608 17.9166 15.1666 16.6107 15.1666 14.9999C15.1666 13.3891 13.8608 12.0833 12.25 12.0833H7.58329ZM7.24996 21.1666C7.24996 20.9825 7.3992 20.8333 7.58329 20.8333H12.4583C14.4143 20.8333 16 22.4189 16 24.3749C16 26.3309 14.4143 27.9166 12.4583 27.9166H7.58329C7.3992 27.9166 7.24996 27.7673 7.24996 27.5833V21.1666Z" fill="#4CA64B"/>
<path d="M25.7315 9.51639H33.6035C33.877 9.51639 34.0997 9.73618 34.1034 10.0097L34.125 11.614C34.1287 11.8927 33.9038 12.1207 33.625 12.1207H25.7315C25.4554 12.1207 25.2315 11.8969 25.2315 11.6207V10.0164C25.2315 9.74025 25.4554 9.51639 25.7315 9.51639Z" fill="#4CA64B"/>
<path fill-rule="evenodd" clip-rule="evenodd" d="M29.9527 28.116C30.7591 28.1421 31.5533 27.9033 32.2258 27.4326C32.6589 27.1442 33.0039 26.7324 33.2222 26.2469C33.28 26.1183 33.404 26.0289 33.545 26.0289H36.7467C36.9637 26.0289 37.123 26.2332 37.059 26.4407C36.5709 28.0225 35.6138 29.4013 34.3241 30.3694C32.9376 31.2664 31.333 31.7158 29.7079 31.6623C28.5496 31.6832 27.3982 31.47 26.3156 31.0343C25.3448 30.6277 24.4724 29.9966 23.7627 29.1873C23.0767 28.363 22.5535 27.4022 22.2239 26.3613C21.8359 25.2119 21.6464 23.9982 21.6644 22.7781C21.6537 21.575 21.8492 20.3798 22.2414 19.2503C22.6069 18.2039 23.1724 17.2483 23.9026 16.4428C24.6349 15.653 25.5087 15.0252 26.473 14.5957C27.5261 14.1359 28.6558 13.9035 29.7953 13.9123C31.0069 13.8926 32.2056 14.1775 33.2924 14.7435C34.2693 15.2808 35.1182 16.0449 35.7754 16.9784C36.4284 17.9408 36.903 19.025 37.1743 20.1738C37.4547 21.3813 37.555 22.6276 37.4715 23.8678H25.896C25.8448 25.0589 26.2335 26.2244 26.9801 27.1186C27.3839 27.492 27.8564 27.7733 28.3678 27.9449C28.8793 28.1165 29.4189 28.1748 29.9527 28.116ZM26 20.6646C26 20.7577 26.0755 20.8333 26.1686 20.8333H32.9146C33.0078 20.8333 33.0833 20.7577 33.0833 20.6646C33.0833 18.8017 31.5731 17.2916 29.7103 17.2916H29.373C27.5101 17.2916 26 18.8017 26 20.6646Z" fill="#4CA64B"/>
</svg>
