<svg width="20" height="20" viewBox="0 0 20 20" fill="none" xmlns="http://www.w3.org/2000/svg">
<path d="M7.40842 12.8356C6.95159 12.8915 6.62654 13.3071 6.68241 13.764C6.73828 14.2208 7.1539 14.5459 7.61074 14.49C8.06757 14.4341 8.39262 14.0185 8.33675 13.5617C8.28088 13.1048 7.86525 12.7798 7.40842 12.8356Z" fill="#322F2F"/>
<path d="M4.62344 10.6576C4.56757 10.2008 4.89262 9.78515 5.34945 9.72928C5.80628 9.67341 6.22191 9.99846 6.27778 10.4553C6.33365 10.9121 6.0086 11.3278 5.55177 11.3836C5.09493 11.4395 4.67931 11.1144 4.62344 10.6576Z" fill="#322F2F"/>
<path d="M6.59914 6.21829C6.14231 6.27415 5.81726 6.68978 5.87313 7.14662C5.929 7.60345 6.34463 7.9285 6.80146 7.87263C7.2583 7.81676 7.58334 7.40113 7.52747 6.9443C7.47161 6.48746 7.05598 6.16242 6.59914 6.21829Z" fill="#322F2F"/>
<path d="M13.0811 7.73431C13.0252 7.27747 13.3503 6.86185 13.8071 6.80598C14.264 6.75011 14.6796 7.07516 14.7354 7.53199C14.7913 7.98882 14.4663 8.40445 14.0094 8.46032C13.5526 8.51619 13.137 8.19114 13.0811 7.73431Z" fill="#322F2F"/>
<path d="M9.99387 9.06558C9.53703 9.12144 9.21199 9.53707 9.26786 9.99391C9.32373 10.4507 9.73935 10.7758 10.1962 10.7199C10.653 10.664 10.9781 10.2484 10.9222 9.79159C10.8663 9.33475 10.4507 9.00971 9.99387 9.06558Z" fill="#322F2F"/>
<path d="M9.49425 5.86422C9.43838 5.40738 9.76342 4.99175 10.2203 4.93589C10.6771 4.88002 11.0927 5.20506 11.1486 5.6619C11.2045 6.11873 10.8794 6.53436 10.4226 6.59023C9.96574 6.6461 9.55012 6.32105 9.49425 5.86422Z" fill="#322F2F"/>
<path fill-rule="evenodd" clip-rule="evenodd" d="M1.87743 9.80314C1.98618 5.31715 5.71095 1.76869 10.1969 1.87743C14.6829 1.98618 18.2314 5.71095 18.1227 10.1969C18.1158 10.4811 18.0203 10.7406 17.8443 10.9543C17.6761 11.1587 17.4582 11.2927 17.2432 11.3825C16.8249 11.5571 16.3005 11.6119 15.7816 11.6154C13.5411 11.6306 11.5949 13.5577 11.4677 15.8307C11.4381 16.3609 11.3476 16.9003 11.1194 17.3241C11.0013 17.5436 10.8353 17.7523 10.6028 17.9035C10.3648 18.0582 10.0919 18.1297 9.80314 18.1227C5.31715 18.0139 1.76869 14.2891 1.87743 9.80314ZM10.1667 3.12707C6.37081 3.03505 3.21908 6.0376 3.12707 9.83344C3.03505 13.6293 6.0376 16.781 9.83344 16.873C9.89018 16.8744 9.91118 16.8622 9.92146 16.8555C9.9373 16.8452 9.974 16.8148 10.0188 16.7315C10.1166 16.5499 10.1934 16.2298 10.2197 15.7608C10.3817 12.8651 12.8371 10.3853 15.7732 10.3654C16.2416 10.3623 16.5702 10.3089 16.7617 10.229C16.8293 10.2007 16.8609 10.1769 16.873 10.166C16.9647 6.37046 13.9623 3.21908 10.1667 3.12707Z" fill="#322F2F"/>
</svg>
