<svg width="20" height="20" viewBox="0 0 20 20" fill="none" xmlns="http://www.w3.org/2000/svg">
<path fill-rule="evenodd" clip-rule="evenodd" d="M10.0004 3.125L16.0618 3.29638C17.1328 3.32666 18.0186 4.1397 18.1404 5.2042C18.41 7.56055 18.41 9.93995 18.1404 12.2963C18.0186 13.3608 17.1328 14.1738 16.0618 14.2041L11.4588 14.3343V16.0419H14.1671C14.5123 16.0419 14.7921 16.3217 14.7921 16.6669C14.7921 17.0121 14.5123 17.2919 14.1671 17.2919H5.83377C5.48859 17.2919 5.20877 17.0121 5.20877 16.6669C5.20877 16.3217 5.48859 16.0419 5.83377 16.0419H8.5421V14.3343L3.93907 14.2041C2.86805 14.1738 1.9822 13.3608 1.86041 12.2963C1.5908 9.93995 1.5908 7.56055 1.86041 5.2042C1.9822 4.1397 2.86805 3.32666 3.93907 3.29638L10.0004 3.125ZM10.0004 4.3755L3.9744 4.54588C3.52506 4.55858 3.1534 4.89969 3.1023 5.3463C2.8435 7.60822 2.8435 9.89228 3.1023 12.1542C3.1534 12.6008 3.52506 12.9419 3.9744 12.9546L10.0004 13.125L16.0265 12.9546C16.4758 12.9419 16.8474 12.6008 16.8985 12.1542C17.1573 9.89228 17.1573 7.60822 16.8985 5.3463C16.8474 4.89969 16.4758 4.55858 16.0265 4.54588L10.0004 4.3755Z" fill="#322F2F"/>
</svg>
