<svg width="131" height="24" viewBox="0 0 131 24" fill="none" xmlns="http://www.w3.org/2000/svg">
<path d="M2 23V7.59552C2 1.43444 11.5 0 13 9.99992C14.5 0 24.1972 1.43411 24.1972 7.59588V14.528C24.1972 25.3112 14.4859 19.1494 13.7923 18.3791" stroke="#322F2F" stroke-width="4"/>
<path d="M44.4039 2.88372C34.3481 2.88372 31.9221 7.49403 31.918 12.5401C31.9127 18.9498 37.4673 21.6126 42.3229 21.6126C45.4034 21.6126 50.6416 19.6543 50.6468 12.595C50.6521 5.44905 50.6468 2.102 50.6468 0.802734" stroke="#322F2F" stroke-width="4"/>
<path d="M122.755 2.88372C112.7 2.88372 110.274 7.49403 110.27 12.5401C110.264 18.9498 115.819 21.6126 120.674 21.6126C123.755 21.6126 128.993 19.6543 128.998 12.595C129.004 5.44905 128.998 2.102 128.998 0.802734" stroke="#322F2F" stroke-width="4"/>
<path d="M58.3691 22.9998V2.26163C62.5 2.26172 75.3275 0.940795 77.5395 9.638C79.0141 19.6726 73.8529 23.686 66.4797 19.6721" stroke="#322F2F" stroke-width="4"/>
<path d="M102.547 0.802734V11.8815C102.547 15.3696 101.853 21.6126 94.9167 21.6126C90.6973 21.6126 86.5927 19.5316 84.5117 12.595" stroke="#322F2F" stroke-width="4"/>
</svg>
