<svg width="20" height="20" viewBox="0 0 20 20" fill="none" xmlns="http://www.w3.org/2000/svg">
<path fill-rule="evenodd" clip-rule="evenodd" d="M17.8793 4.51313C18.0395 4.75572 18.0128 5.0854 17.7992 5.29896L10.1389 12.9593C10.0604 13.0378 9.96233 13.094 9.85489 13.1221L6.66453 13.9554C6.56048 13.9826 6.45322 13.982 6.35244 13.9564C6.2453 13.9291 6.14549 13.8735 6.06465 13.7926C5.90775 13.6357 5.8458 13.4074 5.90188 13.1927L6.73521 10.0024C6.75977 9.90836 6.80584 9.81551 6.86958 9.74268L14.5583 2.05806C14.6256 1.99076 14.7067 1.94038 14.7949 1.90969C14.8603 1.88694 14.9297 1.875 15.0002 1.875C15.166 1.875 15.325 1.94085 15.4422 2.05806L17.7992 4.41508C17.8297 4.44559 17.8564 4.47847 17.8793 4.51313ZM16.4734 4.85702L15.0002 3.38388L7.90176 10.4824L7.38094 12.4763L9.37491 11.9555L16.4734 4.85702Z" fill="#322F2F"/>
<path d="M16.368 14.3003C16.5959 12.3522 16.6684 10.3906 16.5855 8.43399C16.5815 8.34031 16.6168 8.24915 16.6831 8.18285L17.5025 7.36341C17.6033 7.26266 17.7754 7.32662 17.7848 7.46878C17.939 9.79349 17.8805 12.1288 17.6096 14.4455C17.4124 16.1309 16.0588 17.4517 14.3821 17.6391C11.4933 17.962 8.50719 17.962 5.61837 17.6391C3.94166 17.4517 2.58805 16.1309 2.39092 14.4455C2.04547 11.4919 2.04547 8.50811 2.39092 5.55452C2.58805 3.86908 3.94166 2.54824 5.61838 2.36084C7.80983 2.11592 10.0573 2.05679 12.2758 2.18347C12.4188 2.19163 12.4839 2.36465 12.3827 2.46591L11.5555 3.29304C11.49 3.35862 11.4 3.39384 11.3073 3.39071C9.45199 3.32814 7.58403 3.39894 5.75722 3.60311C4.64879 3.72699 3.76089 4.60167 3.63246 5.69973C3.29829 8.55684 3.29829 11.4432 3.63246 14.3003C3.76089 15.3983 4.64879 16.273 5.75722 16.3969C8.55376 16.7094 11.4467 16.7094 14.2433 16.3969C15.3517 16.273 16.2396 15.3983 16.368 14.3003Z" fill="#322F2F"/>
</svg>
