<svg width="20" height="20" viewBox="0 0 20 20" fill="none" xmlns="http://www.w3.org/2000/svg">
<path fill-rule="evenodd" clip-rule="evenodd" d="M8.73941 3.42759C9.30143 2.45903 10.7001 2.45903 11.2621 3.42759L12.9833 6.39372C13.1419 6.66713 13.4161 6.8537 13.7287 6.90091L16.5867 7.33258C17.8325 7.52075 18.2695 9.09372 17.2993 9.89755L15.2169 11.6228C14.9246 11.865 14.7872 12.2469 14.8582 12.6198L15.4415 15.6831C15.67 16.8831 14.4103 17.8154 13.3295 17.2463L10.4861 15.7491C10.1823 15.5892 9.81923 15.5892 9.51546 15.7491L6.6721 17.2463C5.59125 17.8154 4.33156 16.8831 4.56006 15.6831L5.14338 12.6198C5.21438 12.2469 5.07695 11.865 4.78466 11.6228L2.70225 9.89755C1.73201 9.09372 2.16901 7.52075 3.41484 7.33258L6.27288 6.90091C6.58543 6.8537 6.85964 6.66713 7.01829 6.39372L8.73941 3.42759ZM10.181 4.05495C10.1007 3.91658 9.90087 3.91658 9.82058 4.05495L8.09945 7.02108C7.75043 7.62257 7.14718 8.03303 6.45956 8.13689L3.60152 8.56856C3.42354 8.59544 3.36112 8.82015 3.49972 8.93499L5.58214 10.6602C6.22517 11.193 6.52752 12.0333 6.37132 12.8536L5.788 15.9169C5.75536 16.0884 5.93531 16.2216 6.08972 16.1403L8.93308 14.6431C9.60139 14.2912 10.4002 14.2912 11.0685 14.6431L13.9118 16.1403C14.0662 16.2216 14.2462 16.0884 14.2136 15.9169L13.6302 12.8536C13.474 12.0333 13.7764 11.193 14.4194 10.6602L16.5018 8.93499C16.6404 8.82015 16.578 8.59544 16.4 8.56856L13.542 8.13689C12.8544 8.03303 12.2511 7.62257 11.9021 7.02108L10.181 4.05495Z" fill="#322F2F"/>
</svg>
