<svg width="40" height="40" viewBox="0 0 40 40" fill="none" xmlns="http://www.w3.org/2000/svg">
<path fill-rule="evenodd" clip-rule="evenodd" d="M30.8052 32.9833L30.8063 32.9805L30.8353 32.908L35.8333 7.70955V7.6277C35.8333 6.99987 35.6013 6.45177 35.0965 6.123C34.6547 5.83523 34.1467 5.81474 33.7906 5.84177C33.4139 5.87036 33.0587 5.96439 32.8128 6.04266C32.6863 6.08292 32.5804 6.12172 32.5047 6.15106C32.4667 6.16579 32.4359 6.17829 32.4135 6.1876L32.3915 6.19686L4.52511 17.1284L4.51744 17.1312C4.50239 17.1367 4.48249 17.1441 4.45845 17.1534C4.41053 17.1721 4.34529 17.1988 4.26866 17.2335C4.11819 17.3017 3.9103 17.4069 3.69946 17.5513C3.34137 17.7965 2.65951 18.3771 2.77465 19.2975C2.87002 20.0598 3.39552 20.544 3.74981 20.7946C3.93972 20.929 4.12141 21.0259 4.25446 21.0893C4.32187 21.1214 4.37913 21.1459 4.42178 21.1633C4.44316 21.172 4.46104 21.179 4.47487 21.1842L4.49258 21.1908L4.5039 21.195L9.3793 22.8364C9.36284 23.1423 9.39318 23.4542 9.4743 23.7619L11.9164 33.0259C12.206 34.1243 13.1997 34.8894 14.3357 34.8886C15.3539 34.8879 16.2569 34.2719 16.6406 33.3529L20.4534 29.2761L27.0017 34.2965L27.0948 34.3371C27.6897 34.5967 28.2456 34.679 28.7538 34.6095C29.2613 34.5402 29.6646 34.3274 29.9675 34.085C30.2656 33.8465 30.4699 33.5774 30.5984 33.3747C30.6636 33.2718 30.7123 33.1813 30.7461 33.1132C30.763 33.079 30.7764 33.05 30.7864 33.0275L30.7989 32.9984L30.8034 32.9877L30.8052 32.9833ZM11.8916 23.1246C11.8361 22.914 11.9233 22.6918 12.1071 22.5751L28.6438 12.0735C28.6438 12.0735 29.6164 11.483 29.5816 12.0735C29.5816 12.0735 29.7552 12.1778 29.234 12.664C28.7397 13.1258 17.4479 24.0276 16.3053 25.1307C16.2394 25.1944 16.2 25.2674 16.1768 25.3561L14.3338 32.3886L11.8916 23.1246Z" fill="#4CA64B"/>
</svg>
