<svg width="40" height="40" viewBox="0 0 40 40" fill="none" xmlns="http://www.w3.org/2000/svg">
<path d="M8.33373 16.4341C11.5277 23.3905 17.2111 28.9214 24.277 31.9197L25.4096 32.4244C28.001 33.5789 31.0473 32.7018 32.6278 30.3459L34.1079 28.1398C34.5892 27.4225 34.4427 26.4564 33.7704 25.914L28.7507 21.8644C28.0134 21.2696 26.9292 21.4081 26.3651 22.1692L24.8122 24.2647C20.8276 22.2991 17.5925 19.064 15.6269 15.0793L17.7223 13.5264C18.4834 12.9624 18.622 11.8782 18.0272 11.1409L13.9774 6.121C13.4351 5.44886 12.4693 5.30225 11.752 5.7832L9.53061 7.2727C7.16003 8.86221 6.28773 11.9336 7.46895 14.5319L8.33243 16.4312L8.33373 16.4341Z" fill="#4CA64B"/>
</svg>
