<svg width="20" height="20" viewBox="0 0 20 20" fill="none" xmlns="http://www.w3.org/2000/svg">
<path fill-rule="evenodd" clip-rule="evenodd" d="M16.7381 14.1107C17.1089 10.5467 17.1089 6.95396 16.7381 3.39005C16.6058 2.11918 15.1405 1.47541 14.1151 2.23768L10.6954 4.77969C9.65333 5.55428 8.38947 5.97257 7.09106 5.97257H3.90006C3.32477 5.97257 2.8584 6.43894 2.8584 7.01424V10.4865C2.8584 11.0618 3.32477 11.5281 3.90006 11.5281H4.4203L3.71583 14.1572C3.63733 14.4502 3.78051 14.7572 4.05539 14.8854L7.12301 16.3159C7.29045 16.394 7.48385 16.394 7.65129 16.3159C7.81873 16.2378 7.94304 16.0897 7.99086 15.9112L9.0431 11.9842C9.05428 11.9425 9.06096 11.9006 9.06345 11.8592C9.64468 12.0599 10.1955 12.3495 10.6954 12.721L14.1151 15.263C15.1405 16.0253 16.6058 15.3815 16.7381 14.1107ZM15.4948 3.51941C15.8566 6.99732 15.8566 10.5034 15.4948 13.9813C15.4628 14.2885 15.1086 14.4441 14.8608 14.2598L11.4411 11.7178C10.1835 10.783 8.6581 10.2781 7.09106 10.2781L4.1084 10.2781L4.1084 7.22257H7.09106C8.6581 7.22257 10.1834 6.71774 11.4411 5.78288L14.8608 3.24088C15.1086 3.05664 15.4628 3.21223 15.4948 3.51941ZM7.86419 11.5778C7.60886 11.5448 7.35065 11.5281 7.09106 11.5281H5.71439L5.05897 13.9742L6.97624 14.8682L7.8357 11.6607C7.84338 11.632 7.85293 11.6044 7.86419 11.5778Z" fill="#322F2F"/>
</svg>
