<svg width="40" height="40" viewBox="0 0 40 40" fill="none" xmlns="http://www.w3.org/2000/svg">
<path d="M16.2306 12.4829L16.2309 12.4836C16.4475 12.9662 16.8086 13.8456 17.099 14.553L17.1025 14.5614L17.1027 14.562C17.2167 14.8395 17.3199 15.0908 17.4005 15.2845C17.4408 15.3814 17.4749 15.4626 17.5016 15.5247C17.5149 15.5557 17.5259 15.5809 17.5346 15.6003L17.545 15.6233C17.5478 15.6293 17.549 15.6317 17.5489 15.6315C17.6919 15.9162 17.8205 16.3379 17.5844 16.8217C17.5685 16.8544 17.5534 16.8857 17.5383 16.917L17.0879 16.7L17.5383 16.917L17.534 16.9261C17.4211 17.1603 17.3168 17.3769 17.0835 17.6448L17.0833 17.6449C17.0105 17.7285 16.9337 17.8213 16.8522 17.9198L16.8418 17.9324C16.7078 18.0944 16.5542 18.28 16.4161 18.4175L16.4158 18.4178C16.3605 18.4728 16.3248 18.5094 16.2969 18.5439C16.2775 18.5678 16.269 18.5824 16.2655 18.5892C16.2675 18.5996 16.2755 18.6296 16.3061 18.6823C16.5441 19.0926 17.3779 20.4416 18.5962 21.5213L18.5971 21.522C19.9107 22.6915 21.0472 23.1819 21.634 23.4351L21.6352 23.4356L21.6459 23.4402C21.7542 23.4869 21.8597 23.5324 21.9418 23.5733M16.2306 12.4829L22.1945 23.6587L22.1949 23.6586C22.1949 23.6586 22.1945 23.6587 22.194 23.6589C22.1937 23.659 22.1939 23.659 22.1945 23.6587M16.2306 12.4829C16.0455 12.0721 15.8228 11.7875 15.5369 11.6217C15.26 11.4612 14.988 11.4541 14.8353 11.4502C14.8318 11.4501 14.8283 11.45 14.8249 11.4499M16.2306 12.4829L13.1827 20.5949L12.7686 20.875C12.747 20.8431 12.7299 20.8179 12.7163 20.7981L12.7002 20.7748C12.6964 20.7693 12.6946 20.7669 12.6944 20.7666L12.6943 20.7665L12.6855 20.7547L12.6854 20.7546L12.6854 20.7546C12.5572 20.583 12.1 19.9713 11.6743 19.13C11.252 18.2954 10.839 17.1932 10.839 16.0447C10.839 13.866 11.9261 12.7133 12.3984 12.2141C12.4271 12.1837 12.4514 12.1581 12.473 12.1348C12.9788 11.5894 13.5826 11.4415 13.9856 11.4415H13.9911C14.2751 11.4415 14.5697 11.4415 14.8249 11.4499M21.9418 23.5733L21.719 24.0209L21.9417 23.5733C21.9417 23.5733 21.9418 23.5733 21.9418 23.5733ZM21.9418 23.5733C22.1224 23.6631 22.1882 23.6594 22.1945 23.6587M22.1945 23.6587C22.1953 23.6583 22.197 23.6575 22.1997 23.6558C22.2097 23.6497 22.2338 23.6321 22.2718 23.588L22.2718 23.5879C22.5292 23.2891 23.3261 22.3596 23.5955 21.9621C23.7891 21.6689 24.0464 21.4622 24.3916 21.4215C24.6844 21.387 24.9635 21.4886 25.1505 21.5584L25.1506 21.5584C25.3758 21.6424 26.0298 21.9516 26.6478 22.2492C27.2802 22.5536 27.917 22.8664 28.1335 22.9742L28.1336 22.9742C28.2146 23.0145 28.2907 23.051 28.3644 23.0864L28.3794 23.0935C28.5163 23.1592 28.6613 23.2287 28.782 23.3024C28.9065 23.3785 29.0606 23.4909 29.1653 23.6673M22.1945 23.6587L29.1653 23.6673M29.1653 23.6673C29.1653 23.6673 29.1652 23.6672 29.1652 23.6672L28.7353 23.9224L29.1653 23.6673ZM14.8249 11.4499C14.8255 11.4499 14.826 11.4499 14.8266 11.4499L14.8101 11.9497L14.8235 11.4498C14.8239 11.4499 14.8244 11.4499 14.8249 11.4499ZM12.3687 33.929C12.2572 33.8686 12.1269 33.8529 12.0042 33.8849L4.32527 35.8906C4.20108 35.9231 4.08837 35.8088 4.12246 35.6851L6.17348 28.2402C6.20909 28.111 6.1913 27.9728 6.12411 27.8568C4.71421 25.4224 3.97263 22.6619 3.97363 19.8524V19.8522C3.97363 11.0218 11.2007 3.83325 20.0701 3.83325C24.3819 3.83325 28.4187 5.5042 31.4579 8.52914C34.4964 11.5536 36.1668 15.5784 36.1668 19.8603C36.1668 28.6905 28.9398 35.8791 20.0702 35.8791H20.062C17.367 35.8791 14.7198 35.2026 12.3687 33.929ZM25.6325 28.4904C25.6326 28.4904 25.6326 28.4904 25.6327 28.4904L25.5858 27.9926L25.6322 28.4905L25.6325 28.4904ZM20.2499 27.3911L20.4329 26.9258L20.2497 27.3911C20.2498 27.3911 20.2498 27.3911 20.2499 27.3911Z" fill="#4CA64B" stroke="#4CA64B" stroke-linejoin="round"/>
</svg>
